<svg width="100" height="127" viewBox="0 0 100 127" fill="none" xmlns="http://www.w3.org/2000/svg">
<path d="M8.07347 36.9577C17.0934 21.4704 52.4217 5.89307 68.9583 0.0403167C75.2723 -0.860107 97.8222 13.5467 99.6262 20.7501C101.069 26.5128 97.9725 33.3561 96.4692 36.0574C79.1508 43.6209 74.9716 33.5061 74.8213 27.5032C72.2957 28.5837 68.3569 26.1526 66.7033 24.802C63.8169 43.1706 48.964 57.6674 41.8984 62.6197C73.2879 61.8994 88.9525 78.8274 92.8612 87.3814C79.3312 119.797 37.3884 126.4 21.1524 127C33.7804 119.797 41.4474 110.792 43.7024 107.191C-10.8685 101.338 -3.20149 56.3168 8.07347 36.9577Z" fill="white"/>
</svg>
