<svg width="40" height="40" viewBox="0 0 24 24" fill="none" xmlns="http://www.w3.org/2000/svg">
  <!-- 문서 본체 -->
  <path d="M13 2H4.5C3.67 2 3 2.67 3 3.5V19.5C3 20.33 3.67 21 4.5 21H14.5C15.33 21 16 20.33 16 19.5V5L13 2Z"
    fill="none" stroke="#111827" stroke-width="1.5" stroke-linejoin="round"/>
  <!-- 접힌 모서리 선 -->
  <path d="M13 2V5H16" fill="none" stroke="#111827" stroke-width="1.5" stroke-linejoin="round"/>
  <!-- 줄 -->
  <line x1="6" y1="9" x2="12" y2="9" stroke="#111827" stroke-width="1.3" stroke-linecap="round"/>
  <line x1="6" y1="12" x2="10" y2="12" stroke="#111827" stroke-width="1.3" stroke-linecap="round"/>

  <!-- 연필 (문서 위에 올려진 형태, 우하단 45도) -->
  <!-- 지우개 마개 -->
  <path d="M20.5 8.0 L21.4 8.9 L19.8 10.5 L18.9 9.6 Z" fill="none" stroke="#111827" stroke-width="1.3" stroke-linejoin="round"/>
  <!-- 지우개 구분선 -->
  <line x1="18.9" y1="9.6" x2="19.8" y2="10.5" stroke="#111827" stroke-width="1" stroke-linecap="round"/>
  <!-- 연필 몸통 -->
  <path d="M19.8 10.5 L16.2 14.1 L14.4 12.3 L18.0 8.7 Z" fill="none" stroke="#111827" stroke-width="1.3" stroke-linejoin="round"/>
  <!-- 촉 -->
  <path d="M16.2 14.1 L14.4 12.3 L12.8 15.8 Z" fill="none" stroke="#111827" stroke-width="1.3" stroke-linejoin="round"/>
  <!-- 심 끝 -->
  <line x1="12.8" y1="15.8" x2="12.3" y2="16.3" stroke="#111827" stroke-width="1.2" stroke-linecap="round"/>
</svg>


